<?xml version="1.0" encoding="utf-8"?>
<!-- Generator: Adobe Illustrator 17.0.0, SVG Export Plug-In . SVG Version: 6.00 Build 0)  -->
<!DOCTYPE svg PUBLIC "-//W3C//DTD SVG 1.1//EN" "http://www.w3.org/Graphics/SVG/1.1/DTD/svg11.dtd">
<svg version="1.1" id="Warstwa_1" xmlns="http://www.w3.org/2000/svg" xmlns:xlink="http://www.w3.org/1999/xlink" x="0px" y="0px"
	 width="781.461px" height="979.451px" viewBox="0 0 781.461 979.451" enable-background="new 0 0 781.461 979.451"
	 xml:space="preserve">
<g>
	<path fill="#353535" d="M105.228,19.099c0,0-15.235,30.074-15.55,65.731s0.118,56.144,10.16,80.486s26.689,24.132,18.94,46.591
		s-5.289,42.223-19.087,53.395s-23.484,17.13-28.179,22.141S57.69,303.687,53.849,310.65c-3.841,6.964-9.142,15.82-13.431,29.09
		s-11.346,42.706-12.672,53.337c-1.326,10.631-0.141,35.284,0,39.151c0.141,3.867,18.392-61.813,56.96-62.165
		c0,0-45.793,96.534-36.16,123.82s-3.902,50.154,8.988,74.168c0,0,10.261-37.348,12.471-44.699
		c2.211-7.351,21.043-61.477,36.511-62.121s-24.613,21.821-9.406,170.426l11.255,12.6l5.886-52.191l24.491-45.111l18.763-14.471
		l-11.849,45.707l-6.914,50.612l7.916,49.199l10.847-33.731l18.943-36.621l13.949-13.514v78.191l16.571,65.397l10.304,33.944
		l10.93-18.577l9.225-54.564l11.527-26.201h14.179l12.128,26.201l9.141,103.862l16.757,80.349l13.311,29.003l24.172,29.647
		l29.009,10.312l39.208,6.284l35.262-15.266l24.2-25.336l20.891-50.542l8.969-74.959l4.737-54.63l6.134-47.623l18.625-22.613
		l8.796,14.314l18.66,81.612v12.164c0,0,52.88-109.781,33.545-190.56c0,0,47.598,70.852,41.201,115.882
		c0,0,24.548-129.439-0.592-172.395c0,0,53.019,79.099,47.131,135.694c0,0,29.559-96.701-7.177-204.382
		c0,0,44.781,14.655,58.483,115.58c0,0,24.416-135.934-25.09-203.123c0,0,21.831,3.241,28.802,17.726
		c6.971,14.485,16.918,25.78,20.785,38.671c3.867,12.89,3.223-43.193,3.223-43.193s-15.88-80.823-50.719-102.843
		c-34.839-22.02-51.542-58.679-39.401-81.744s21.964-50.476,21.964-50.476l4.727-68.754l-11.169-50.165l-3.978-11.927
		l-75.515,37.811l-40.389,15.898l-27.929,6.445l-25.78-3.008l-56.704-9.413h-58.501l-41.517-1.329l-33.514,8.701l-55.105,2.256
		l-19.657,4.512C240.253,80.972,111.029,31.345,105.228,19.099z"/>
	<path fill="#202021" d="M124.414,216.979c0,0-29.248-35.815-33.435-86.734s3.622-111.337,10.029-118.509
		c0,0,104.082,72.524,145.186,67.383c41.104-5.141,175.556-1.596,215.608,31.531c0,0-73.459,1.532-105.645,68.246
		c0,0,66.882-29.354,105.645,16.102c0,0-181.606,57.126-71.421,365.166s0,0,0,0s-104.535,30.553-115.12-68.527
		C264.676,392.558,124.414,216.979,124.414,216.979"/>
	<path fill="#202021" d="M527.772,435.114c0,0,26.073,28.339,7.167,91.071c0,0,23.906,48.789-7.167,102.595
		s-39.276,227.32-85.652,227.32c-31.401,0,29.658-250.142,42.548-271.553c12.89-21.411,14.699-57.552,18.094-72.202
		c3.395-14.651,10.848-37.871,1.533-53.694c-9.315-15.823-17.212-37.545-17.377-47.155
		C486.752,401.888,540.8,370.683,527.772,435.114z"/>
	<path fill="#202021" d="M23.889,429.694c0,0-14.439-99.439,77.511-170.764c0,0,169.116-10.673,192.493,60.693
		c28.526,87.086-29.147,211.419-25.745,228.756s-6.991,21.616,17.111,67.17c24.102,45.554,21.637,131.906,28.026,152.113
		c6.388,20.207,2.658,89.293,54.365,101.363c51.707,12.07,66.238,76.182,64.988,85.374c-1.25,9.193-107.289,21.241-126.605-50.556
		c-19.317-71.796-24.801-156.093-25.775-179.652c-0.974-23.559-5.735-28.734-17.13-45.998s-17.874-9.115-21.787,5.611
		c-3.914,14.726-16.473,97.756-16.473,97.756l-17.899-39.273l-13.663-58.483l-2.908-85.238l-13.812,8.816l-17.566,33.963
		l-6.488,30.984l-13.32-39.155l5.679-49.378l4.203-40.853l5.586-12.031l-43.996,92.79l-9.561,28.342l-8.555-74.301l6.254-77.338
		l10.596-33.662l-25.153,19.08L62.3,539.505l-5.586,32.655l-8.802-80.523l16.322-72.977l20.473-48.596l-37.23,23.783l-20.352,42.538
		L23.889,429.694z"/>
	<path fill="#202021" d="M713.688,292.933c0,0-30.081,46.461-62.951,64.02c0,0-17.029,123.741-157.718,67.105s0,0,0,0
		S403.469,177.84,713.688,292.933"/>
	<path fill="#141414" d="M70.381,290.785c0,0,30.081,46.461,62.951,64.02c0,0,17.029,123.741,157.718,67.105l0,0
		C291.05,421.91,380.6,175.692,70.381,290.785"/>
	<path fill="#2E0E0F" d="M404.845,135.798c0,0,236.743,101.067,161.621,420.481C566.466,556.28,567.555,263.841,404.845,135.798z"/>
	<circle cx="232.507" cy="331.771" r="80.778"/>
	<path fill="#E3D872" d="M256.431,256.369l-98.597,89.67C157.834,346.039,146.542,243.563,256.431,256.369z"/>
	<polygon fill="#E3D872" points="269.946,262.845 159.807,359.369 168.499,375.449 280.258,271.009 	"/>
	<polygon fill="#E3D872" points="307.137,331.771 228.822,400.405 235.003,411.839 314.47,337.576 	"/>
	<circle cx="546.506" cy="331.771" r="80.778"/>
	<path fill="#E3D872" d="M546.506,256.047l-69.905,63.575C476.601,319.622,468.596,246.968,546.506,256.047z"/>
	<polygon fill="#E3D872" points="572.542,247.14 465.194,340.873 473.886,356.953 585.645,252.512 	"/>
	<polygon fill="#E3D872" points="620.061,353.47 558.366,407.539 563.235,416.546 625.837,358.043 	"/>
	<path d="M282.187,528.035c0,0-24.181,17.864-9.071,55.761c15.11,37.897,27.872,76.418,27.872,76.418l9.072,46.746
		c0,0,13.334,116.475,24.056,131.811c10.722,15.336,31.386,31.079,55.931,30.22c24.545-0.859,34.731-5.694,40.453-10.727
		s14.54-21.809,18.048-27.943c3.508-6.134,14.167-69.177,15.026-88.513c0.859-19.335,12.102-66.859,13.527-72.86
		c1.425-6.001,11.394-48.568,16.979-52.305c5.586-3.737,22.773-33.814,21.054-38.11c-1.719-4.297,1.648-36.209-3.867-39.96
		c-5.515-3.751-15.039-10.538-15.039-10.538s-16.243,16.983-24.019,19.991c-7.776,3.008-49.025,15.898-57.189,16.757
		c-8.164,0.859-63.806,0.756-70.359-0.911c-6.552-1.667-25.365-9.831-32.716-13.698
		C304.596,546.307,282.187,528.035,282.187,528.035z"/>
	<path fill="#FFFFFF" d="M311.947,558.768c0,0-3.269,32.225-2.625,43.612c0.645,11.386-0.682,24.276,1.27,33.944
		c1.952,9.668,9.042,31.366,10.975,35.448c1.934,4.082,3.778-15.469,3.867-18.906c0.787-30.231,19.228-32.118,22.787-60.314
		c0.603-4.779,10.815,22.062,12.104,20.279c1.289-1.783,13.786-28.264,14.86-28.049s14.914,29.633,14.914,29.633l14.476-30.62
		l15.383,30.63l12.871-20.917c0,0,4.058,25.209,15.718,31.518c4.411,2.387,8.796,38.365,8.581,42.877
		c-0.215,4.512,7.949-8.379,8.164-10.312s6.23-44.686,6.23-49.627s-1.289-25.995-2.363-29.218
		c-1.074-3.223-4.941-18.583-4.941-18.583S413.612,576.169,311.947,558.768z"/>
	<path fill="#FFFFFF" d="M322.083,801.042c0,0,13.02-37.32,12.161-40.328c-0.859-3.008,4.855,19.274,9.517,20.164
		c4.662,0.89,4.662,3.468,9.818,2.179c5.156-1.289,14.072-5.586,14.072-5.586s-2.471,65.354-14.501,78.652
		S323.981,811.166,322.083,801.042z"/>
	<path fill="#FFFFFF" d="M430.5,858.263c0,0,26.775-43.089,25.413-52.488c-1.362-9.399-11.713-42.29-11.855-45.341
		c-0.142-3.051-4.009,12.095-6.264,15.962c-2.256,3.867-5.156,8.701-12.246,6.767c-7.09-1.934-12.461-5.245-12.998-4.234
		c-0.537,1.011,0,21.636,0,21.636S416.117,847.966,430.5,858.263z"/>
	<path fill="#202021" d="M519.901,628.78c0,0,33.103-13.113,38.465,43.549c0,0,17.285-8.6,17.285-122.511
		c0,0,34.489,49.933,9.994,148.712s-28.683,86.808-28.683,86.808s-15.273-111.689-26.489-117.855S466.407,715.477,519.901,628.78z"
		/>
	<path fill="#202021" d="M575.651,549.818c0,0,43.075,14.463,45.653,49.124c0,0-12.875-71.729-29.202-110.399
		c0,0,58.943,4.356,70.451,50.269c0,0,2.578-81.869-16.328-105.865c0,0,56.725-3.694,67.463,37.811
		c0,0-13.754-81.408-37.815-111.285c0,0,42.538-14.149,55.428,5.816c0,0-2.329-38.868-23.525-68.747
		c0,0,50.133,21.682,48.43,134.257s0,0,0,0l-35.218-58.994h-20.355l22.971,63.918l7.4,48.065l-2.655,72.492l-14.661-10.974
		l-14.613-64.773l-19.658-22.558l-12.621-9.345l13.91,49.949c0,0,3.646,43.522,3.723,44.483s3.068,37.692,3.068,37.692
		l-2.172,61.443h-11.182l-22.332-82.033l-15.418-21.352l-13.37-10.777l11.044,48.016l4.003,66.146l-5.864,41.607l-7.261-6.447
		c0,0-30.445-89.824-36.227-94.098S575.651,549.818,575.651,549.818z"/>
	<g>
		<path fill="#141414" d="M258.133,631.743c0,0-33.103-13.113-38.465,43.549c0,0-17.285-8.6-17.285-122.512
			c0,0-34.489,49.933-9.994,148.712s28.683,86.808,28.683,86.808s15.273-111.689,26.489-117.855
			C258.777,664.28,311.627,718.44,258.133,631.743z"/>
		<path fill="#141414" d="M202.383,552.78c0,0-43.075,14.463-45.653,49.124c0,0,12.875-71.729,29.202-110.399
			c0,0-58.943,4.356-70.451,50.269c0,0-2.578-81.869,16.328-105.865c0,0-56.725-3.694-67.463,37.811
			c0,0,13.754-81.408,37.815-111.285c0,0-42.538-14.149-55.428,5.816c0,0,2.329-38.868,23.525-68.747
			c0,0-50.133,21.682-48.43,134.257s0,0,0,0l35.218-58.994h20.355L54.43,438.685l-7.4,48.065l2.655,72.492l14.661-10.974
			l14.613-64.773l19.658-22.558l12.621-9.345l-13.91,49.949c0,0-3.646,43.522-3.723,44.483c-0.077,0.96-3.068,37.692-3.068,37.692
			l2.172,61.443h11.182l22.333-82.033l15.418-21.352l13.37-10.777l-11.044,48.016l-4.003,66.146l5.864,41.607l7.261-6.447
			c0,0,30.445-89.824,36.227-94.098C195.099,581.947,202.383,552.78,202.383,552.78z"/>
	</g>
	<path fill="#222223" d="M637.739,190.827c0,0-36.2-16.789-27.177-64.236c0,0-29.371,11.494-66.84-9.27
		c0,0,90.757-20.807,102.645-31.978L637.739,190.827z"/>
	<path fill="#141414" d="M142.356,188.541c0,0,36.2-16.789,27.177-64.236c0,0,29.371,11.494,66.84-9.27
		c0,0-90.757-20.807-102.645-31.978L142.356,188.541z"/>
	<path fill="#141414" d="M246.636,431.276c0,0-26.073,28.339-7.167,91.071c0,0-23.906,48.789,7.167,102.595
		s43.821,278.711,132.24,247.723c29.634-10.385-46.186,76.972-87.952-241.5c-7.577-57.776-29.444-57.068-23.785-71.001
		c18.162-44.72-6.34-89.527,2.975-105.35c9.315-15.823,17.212-37.545,17.377-47.155C287.656,398.05,253.719,381.171,246.636,431.276
		z"/>
	<path fill="#141414" d="M320.104,336.485c3.524-10.379-5.634,1.09-44.303,135.991c-0.358,1.25,2.283,41.852,2.283,41.852
		s35.71,42.238,52.377,45.836c16.666,3.598,76.445,15.62,44.749-22.914c0,0-34.283-43.882-40.505-47.077
		C334.704,490.173,271.646,479.19,320.104,336.485z"/>
	<path fill="none" stroke="#000000" stroke-width="14" stroke-miterlimit="10" d="M391.004,63.714
		c-36.952-0.859-141.405,15.97-141.405,15.97c-73.474-11.601-144.37-60.584-144.37-60.584
		c-40.604,115.367,5.156,155.971,12.89,194.641s-32.225,62.732-32.225,62.732s-65.31,29.218-61.873,188.196
		c0,0,18.906-101.403,63.591-98.395c0,0-62.302,71.755-30.077,225.148c0,0,9.023-117.945,59.295-141.792
		c0,0-45.76,97.321-11.601,218.488c0,0,9.882-114.937,58.865-151.889c0,0-43.359,87.657-9.845,190.778
		c0,0-6.483-62.736,37.129-123.749c0,0-13.535,104.84,32.87,204.524c0,0,12.89-139.214,31.796-119.449
		c18.906,19.765,25.78,72.185,28.358,134.058s19.282,155.595,105.646,155.595"/>
	<path fill="none" stroke="#000000" stroke-width="14" stroke-miterlimit="10" d="M336.607,724.191"/>
	<path fill="none" stroke="#000000" stroke-width="14" stroke-miterlimit="10" d="M336.607,265.302
		c0,0-26.425,114.293-46.19,152.104s-52.474,150.647,99.63,150.647"/>
	<path fill="none" stroke="#000000" stroke-width="14" stroke-miterlimit="10" d="M282.187,528.035c0,0-25.015,12.257-10.541,53.505
		s33.38,57.576,43.692,171.01s38.67,114.293,74.763,114.293"/>
	<path fill="none" stroke="#000000" stroke-width="14" stroke-miterlimit="10" d="M443.595,724.191"/>
	<path fill="none" stroke="#000000" stroke-width="14" stroke-miterlimit="10" d="M443.595,265.302
		c0,0,26.425,114.293,46.19,152.104c19.765,37.811,52.366,150.647-99.738,150.647"/>
	<path fill="none" stroke="#000000" stroke-width="14" stroke-miterlimit="10" d="M498.015,528.035c0,0,25.015,12.257,10.541,53.505
		c-14.474,41.249-33.38,57.576-43.692,171.01s-38.671,114.293-74.763,114.293"/>
	<path fill="#22150E" stroke="#000000" stroke-width="9" stroke-miterlimit="10" d="M152.218,332.008
		c0,0-68.903-40.604-72.448-70.896c-3.545-30.292,24.491-64.129,32.548-55.428c8.056,8.701,63.697,56.873,75.675,57.601
		C187.993,263.285,151.836,282.059,152.218,332.008z"/>
	<path stroke="#000000" stroke-width="7" stroke-miterlimit="10" d="M142.951,178.896c0,0-27.191-77.728-26.15-104.1
		s58.296,19.779,100.965,36.813c0,0-54.885,1.682-81.579-20.946C136.186,90.663,156.61,148.707,142.951,178.896z"/>
	<path fill="none" stroke="#000000" stroke-width="14" stroke-miterlimit="10" d="M390.047,63.731
		c36.952-0.859,140.449,15.952,140.449,15.952c73.474-11.601,144.37-60.584,144.37-60.584
		c40.604,115.367-5.156,155.971-12.89,194.641c-7.734,38.67,32.225,62.732,32.225,62.732s65.31,29.218,61.873,188.196
		c0,0-18.906-101.403-63.591-98.395c0,0,62.302,71.755,30.077,225.148c0,0-9.023-117.945-59.295-141.792
		c0,0,45.76,97.321,11.601,218.488c0,0-9.883-114.937-58.865-151.889c0,0,43.359,87.657,9.845,190.778
		c0,0,6.483-62.736-37.129-123.749c0,0,13.535,104.84-32.87,204.524c0,0-12.89-139.214-31.796-119.449
		c-18.906,19.765-25.78,72.185-28.358,134.058s-19.282,155.595-105.646,155.595"/>
	<circle fill="none" stroke="#000000" stroke-width="14" stroke-miterlimit="10" cx="547.098" cy="330.374" r="80.778"/>
	<path fill="#22150E" stroke="#000000" stroke-width="9" stroke-miterlimit="10" d="M627.877,332.008
		c0,0,68.903-40.604,72.448-70.896s-24.491-64.129-32.548-55.428c-8.056,8.701-63.697,56.873-75.675,57.601
		C592.102,263.285,628.258,282.059,627.877,332.008z"/>
	<path stroke="#000000" stroke-width="7" stroke-miterlimit="10" d="M637.143,178.896c0,0,27.191-77.728,26.15-104.1
		s-58.296,19.779-100.965,36.813c0,0,54.885,1.682,81.579-20.946C643.908,90.663,623.485,148.707,637.143,178.896z"/>
	<path fill="none" stroke="#000000" stroke-width="5" stroke-miterlimit="10" d="M313.405,560.164c0,0-18.368,69.285,12.568,121.168
		c0,0-7.412-60.906,18.691-67.996c0,0,2.9-39.53,2.9-45.545"/>
	<path fill="none" stroke="#000000" stroke-width="7" stroke-miterlimit="10" d="M367.651,583.796"/>
	<path fill="none" stroke="#000000" stroke-width="7" stroke-miterlimit="10" d="M367.651,613.336"/>
	<path fill="none" stroke="#000000" stroke-width="7" stroke-miterlimit="10" d="M344.663,613.336"/>
	<g>
		<path fill="none" stroke="#000000" stroke-width="5" stroke-miterlimit="10" d="M466.797,560.164
			c0,0,18.368,69.285-12.568,121.168c0,0,7.412-60.906-18.691-67.996c0,0-2.9-39.53-2.9-45.545"/>
	</g>
	<path fill="none" stroke="#000000" stroke-width="7" stroke-miterlimit="10" d="M323.438,807.248l10.913-51.798
		c7.935,0.317-0.907,31.584,20.789,28.831c0.332-0.042,0.671-0.092,1.017-0.15c0,0,6.767-3.223,11.494-5.478
		c0,0-0.276,70.144-16.626,77.448"/>
	<path fill="none" stroke="#000000" stroke-width="7" stroke-miterlimit="10" d="M456.229,807.27l-10.913-51.798
		c-7.935,0.317,0.907,31.584-20.789,28.831c-0.332-0.042-0.671-0.092-1.017-0.15c0,0-6.767-3.223-11.494-5.478
		c0,0,0.276,70.144,16.626,77.448"/>
	<path fill="none" stroke="#000000" stroke-width="7" stroke-miterlimit="10" d="M338.158,493.885
		c-37.089-41.408-61.544-18.659-61.544-18.659"/>
	<path fill="none" stroke="#000000" stroke-width="7" stroke-miterlimit="10" d="M504.295,472.978c0,0-24.456-22.749-61.544,18.659"
		/>
	<g>
		<path d="M311.581,339.74c0,0,0.054-0.181,0.16-0.533c0.111-0.349,0.266-0.884,0.519-1.543c0.482-1.341,1.266-3.27,2.448-5.637
			c1.173-2.373,2.76-5.168,4.81-8.248c2.084-3.041,4.575-6.435,7.701-9.806c1.518-1.737,3.26-3.388,5.057-5.135
			c0.915-0.854,1.891-1.67,2.871-2.524c0.494-0.423,0.992-0.85,1.493-1.28c0.525-0.402,1.053-0.807,1.585-1.215
			c4.209-3.348,9.126-6.348,14.488-9.052c1.365-0.627,2.741-1.277,4.145-1.895c1.396-0.635,2.88-1.109,4.341-1.666
			c2.918-1.137,6.029-1.871,9.141-2.699c1.571-0.358,3.177-0.597,4.779-0.888l2.412-0.415c0.81-0.102,1.628-0.153,2.445-0.23
			c1.634-0.136,3.273-0.289,4.915-0.394c1.644-0.022,3.292,0.006,4.939,0.015l2.47,0.053c0.823,0.021,1.636,0.142,2.453,0.211
			c1.634,0.154,3.261,0.351,4.884,0.542c1.626,0.175,3.199,0.581,4.787,0.894c1.575,0.358,3.172,0.622,4.705,1.067
			c3.03,0.973,6.099,1.795,8.946,2.991c1.415,0.61,2.822,1.216,4.218,1.819c1.397,0.593,2.767,1.214,4.047,1.956
			c1.303,0.702,2.579,1.423,3.838,2.136c1.249,0.726,2.533,1.372,3.666,2.21c2.326,1.581,4.562,3.165,6.704,4.722
			c2.056,1.668,3.985,3.36,5.838,4.987c1.89,1.585,3.511,3.328,5.069,4.983c1.553,1.658,3.027,3.243,4.371,4.796
			c1.26,1.643,2.475,3.156,3.551,4.64c1.074,1.485,2.102,2.83,2.984,4.138c0.859,1.329,1.607,2.578,2.263,3.72
			c2.654,4.533,3.893,7.281,3.893,7.281s-2.884-1.153-7.444-3.449c-1.159-0.552-2.37-1.235-3.737-1.906
			c-1.409-0.619-2.858-1.358-4.431-2.1c-1.571-0.743-3.172-1.6-4.882-2.454c-1.759-0.776-3.579-1.6-5.446-2.477
			c-1.867-0.875-3.76-1.843-5.808-2.628c-2.021-0.833-4.066-1.738-6.152-2.642c-2.145-0.77-4.313-1.576-6.488-2.439
			c-2.192-0.824-4.479-1.427-6.724-2.222c-0.567-0.177-1.121-0.413-1.703-0.543c-0.576-0.146-1.154-0.293-1.734-0.44
			c-1.148-0.307-2.305-0.616-3.469-0.926c-1.145-0.377-2.334-0.534-3.509-0.773c-1.169-0.247-2.343-0.495-3.522-0.744
			c-1.18-0.219-2.369-0.334-3.554-0.515l-1.778-0.258c-0.592-0.096-1.183-0.208-1.78-0.223c-1.191-0.08-2.383-0.155-3.572-0.273
			c-0.595-0.042-1.189-0.14-1.785-0.139l-1.787-0.006l-3.571-0.077c-1.186,0.084-2.374,0.118-3.561,0.17
			c-0.593,0.028-1.188,0.034-1.78,0.076l-1.77,0.192c-1.183,0.121-2.363,0.242-3.538,0.363c-1.173,0.191-2.342,0.382-3.505,0.572
			c-1.178,0.129-2.327,0.419-3.478,0.673c-1.149,0.266-2.324,0.42-3.452,0.753c-1.131,0.318-2.272,0.597-3.403,0.892
			c-4.482,1.318-8.901,2.72-13.032,4.445c-0.524,0.203-1.044,0.405-1.56,0.605c-0.51,0.221-1.015,0.441-1.518,0.66
			c-1.016,0.435-2.016,0.864-3,1.285c-1.93,0.93-3.876,1.751-5.677,2.682c-3.67,1.763-7.017,3.566-10.023,5.205
			c-2.996,1.654-5.619,3.182-7.81,4.462c-1.096,0.653-2.075,1.236-2.927,1.743c-0.859,0.522-1.589,0.966-2.182,1.325
			C312.222,339.347,311.581,339.74,311.581,339.74z"/>
	</g>
	<circle fill="none" stroke="#000000" stroke-width="14" stroke-miterlimit="10" cx="233.164" cy="332.63" r="78.868"/>
	<path fill="#6A1415" stroke="#000000" stroke-width="6" stroke-miterlimit="10" d="M439.176,637.827h-49.129h-49.129
		c0,0-27.766,115.266,49.129,115.266C466.943,753.093,439.176,637.827,439.176,637.827z"/>
	<path stroke="#000000" stroke-width="3" stroke-miterlimit="10" d="M390.506,637.827c0,0-18.979,16.922-5.62,51.804
		c0,0,2.068-51.222,16.736-51.222"/>
	<g>
		<path stroke="#000000" stroke-width="7" stroke-miterlimit="10" d="M338.662,498.253c-0.654,16.321,14.895,61.911,51.719,61.911
			l-0.828-78.623C389.554,481.541,339.489,477.616,338.662,498.253z"/>
		<path stroke="#000000" stroke-width="7" stroke-miterlimit="10" d="M442.101,498.253c-0.828-20.637-50.892-16.712-50.892-16.712
			l-0.828,78.623C427.205,560.164,442.755,514.575,442.101,498.253z"/>
	</g>
	<g>
		<g>
			<path fill="none" stroke="#000000" stroke-width="4" stroke-miterlimit="10" d="M347.563,577.209
				c1.282,9.309,6.17,35.622,12.763,35.622"/>
			<path fill="none" stroke="#000000" stroke-width="4" stroke-miterlimit="10" d="M375.187,575.302c0,0-7.002,37.529-14.86,37.529"
				/>
		</g>
		<g>
			<path fill="none" stroke="#000000" stroke-width="4" stroke-miterlimit="10" d="M375.187,575.302c0,0,7.002,37.529,14.86,37.529"
				/>
			<path fill="none" stroke="#000000" stroke-width="4" stroke-miterlimit="10" d="M404.908,575.302c0,0-7.002,37.529-14.86,37.529"
				/>
		</g>
		<g>
			<path fill="none" stroke="#000000" stroke-width="4" stroke-miterlimit="10" d="M404.908,575.302c0,0,7.002,37.529,14.86,37.529"
				/>
			<path fill="none" stroke="#000000" stroke-width="4" stroke-miterlimit="10" d="M432.639,575.302c0,0-1.68,37.529-12.871,37.529"
				/>
		</g>
	</g>
</g>
<polygon points="384.139,560.927 384.889,574.927 396.223,574.927 397.973,560.927 "/>
<polygon points="373.681,572.677 372.369,579.281 378.16,579.822 376.702,572.677 "/>
<polygon points="403.124,574.01 401.858,580.572 407.889,581.135 406.686,573.854 "/>
<polygon points="412.473,610.987 413.223,624.987 424.556,624.987 426.306,610.987 "/>
<polygon points="385.389,610.987 386.139,624.987 397.473,624.987 399.223,610.987 "/>
<polygon points="352.639,610.987 353.389,624.987 364.723,624.987 366.473,610.987 "/>
</svg>
