<?xml version="1.0" encoding="UTF-8" standalone="no"?><!-- Generator: Gravit.io --><svg xmlns="http://www.w3.org/2000/svg" xmlns:xlink="http://www.w3.org/1999/xlink" style="isolation:isolate" viewBox="0 0 300 440" width="300pt" height="440pt"><defs><clipPath id="_clipPath_X5AcgkXbGAnB5lCgUKC8Rw4LQvnQbaMf"><rect width="300" height="440"/></clipPath></defs><g clip-path="url(#_clipPath_X5AcgkXbGAnB5lCgUKC8Rw4LQvnQbaMf)"><g><path d=" M 59 182.015 L 56 361.015 Q 119.693 383.435 152 383.015 Q 184.307 382.596 244 361.015 L 240 182.015 L 59 182.015 Z " fill="none" vector-effect="non-scaling-stroke" stroke-width="3" stroke="rgb(0,0,0)" stroke-linejoin="miter" stroke-linecap="square" stroke-miterlimit="3"/><path d=" M 125.5 181.031 Q 136 164.781 151.5 165.031 Q 169.75 164.656 179.5 181.031" fill="none" vector-effect="non-scaling-stroke" stroke-width="3" stroke="rgb(0,0,0)" stroke-linejoin="miter" stroke-linecap="square" stroke-miterlimit="3"/><path d=" M 116 180.031 C 126.5 163.781 136.089 157.63 151 157.031 C 165.911 156.431 179.25 164.656 189 181.031" fill="none" vector-effect="non-scaling-stroke" stroke-width="3" stroke="rgb(0,0,0)" stroke-linejoin="miter" stroke-linecap="square" stroke-miterlimit="3"/><mask id="_mask_Lu9TehComLNDDbmbebDDsXdeBkGjyDu5"><path d=" M 71 194.015 L 227 194.015 L 227 254.015 L 71 254.015 L 71 194.015 Z " fill="white" stroke="none"/></mask><path d=" M 71 194.015 L 227 194.015 L 227 254.015 L 71 254.015 L 71 194.015 Z " fill="none"/><path d=" M 71 194.015 L 227 194.015 L 227 254.015 L 71 254.015 L 71 194.015 Z " fill="none" mask="url(#_mask_Lu9TehComLNDDbmbebDDsXdeBkGjyDu5)" vector-effect="non-scaling-stroke" stroke-width="2" stroke="rgb(0,0,0)" stroke-linejoin="miter" stroke-linecap="square" stroke-miterlimit="3"/><mask id="_mask_b77l7qlr6tMYi2iK0X8a9gtXKDZC5zI7"><path d=" M 72 262.015 L 228 262.015 Q 227.5 263.515 228 357.015 C 184 376.015 122 376.015 72 357.015 Q 72 319.94 72 262.015 Z " fill="white" stroke="none"/></mask><path d=" M 72 262.015 L 228 262.015 Q 227.5 263.515 228 357.015 C 184 376.015 122 376.015 72 357.015 Q 72 319.94 72 262.015 Z " fill="none"/><path d=" M 72 262.015 L 228 262.015 Q 227.5 263.515 228 357.015 C 184 376.015 122 376.015 72 357.015 Q 72 319.94 72 262.015 Z " fill="none" mask="url(#_mask_b77l7qlr6tMYi2iK0X8a9gtXKDZC5zI7)" vector-effect="non-scaling-stroke" stroke-width="2" stroke="rgb(0,0,0)" stroke-linejoin="miter" stroke-linecap="square" stroke-miterlimit="3"/></g></g></svg>