<?xml version="1.0" encoding="UTF-8" standalone="no"?><!-- Generator: Gravit.io --><svg xmlns="http://www.w3.org/2000/svg" xmlns:xlink="http://www.w3.org/1999/xlink" style="isolation:isolate" viewBox="0 0 300 440" width="300pt" height="440pt"><defs><clipPath id="_clipPath_4DrfUUefpfWvCreJ4i7p0qzoUAnx1Vjf"><rect width="300" height="440"/></clipPath></defs><g clip-path="url(#_clipPath_4DrfUUefpfWvCreJ4i7p0qzoUAnx1Vjf)"><path d=" M 21 113 C 21 100.858 65.136 91 119.5 91 C 173.864 91 218 100.858 218 113 C 218 125.142 173.864 135 119.5 135 C 65.136 135 21 125.142 21 113 Z  M 218 362 C 218 374.142 176.191 386 121 386 C 65.808 386 24 374.142 24 362 M 24 361 L 21 115 M 218 361 L 218 322 M 218 311 L 218 170 M 188 192.122 C 211.356 191.788 208.568 159.788 237.314 162.122 C 266.059 164.455 264.263 177.122 269.653 192.122 Q 272.347 213.122 269.653 295.122 C 267.377 308.273 255.05 318.828 237.314 321.122 C 219.577 323.416 210.458 294.455 188 295.122 M 188 180.127 C 214.451 179.727 211.294 141.347 243.849 144.146 C 276.405 146.944 274.37 162.136 280.474 180.127 Q 283.526 205.313 280.474 303.661 C 277.896 319.435 263.936 332.094 243.849 334.845 C 223.762 337.596 213.434 302.862 188 303.661 M 218 154 L 218 115" fill-rule="evenodd" fill="none" vector-effect="non-scaling-stroke" stroke-width="3" stroke="rgb(63,63,63)" stroke-linejoin="miter" stroke-linecap="square" stroke-miterlimit="3"/></g></svg>