<?xml version="1.0" encoding="UTF-8" standalone="no"?><!-- Generator: Gravit.io --><svg xmlns="http://www.w3.org/2000/svg" xmlns:xlink="http://www.w3.org/1999/xlink" style="isolation:isolate" viewBox="0 0 300 440" width="300pt" height="440pt"><defs><clipPath id="_clipPath_SJ0DNWYunmD33sqaUBBRmAT4ANjW4pPZ"><rect width="300" height="440"/></clipPath></defs><g clip-path="url(#_clipPath_SJ0DNWYunmD33sqaUBBRmAT4ANjW4pPZ)"><path d=" M 81 200 Q 84.5 211 79 381 Q 128.22 386 155 386 Q 181.78 386 231 381 Q 228.667 210.667 231 200 Q 233.333 189.333 250 366 Q 259 367 267 366 Q 275 365 282 362 Q 275.708 216.545 263 159 C 256.773 130.801 238.954 120.53 235 120 Q 226.75 116 195 105 Q 173.667 129 154 129 Q 134.799 129 115 105 Q 81.268 114.902 75 120 C 65.625 127.625 54.375 147.375 51 159 Q 30.797 228.59 21 360 Q 28.125 365 37 366 Q 45.875 367 54 366 Q 78.938 199.875 81 200 Z  M 110 108 C 115.564 112.49 125.578 125.156 131 128 C 138.375 131.906 147.797 135.266 153 135 C 158.625 135.313 172.547 131.484 180 127 C 182.602 125.508 193.641 116.156 201 108 M 81 360 C 84.875 360.375 143.188 365.875 154 366 Q 164.813 366.125 230 362" fill-rule="evenodd" fill="none" vector-effect="non-scaling-stroke" stroke-width="2" stroke="rgb(63,63,63)" stroke-linejoin="miter" stroke-linecap="square" stroke-miterlimit="3"/></g></svg>