<?xml version="1.0" encoding="UTF-8" standalone="no"?><!-- Generator: Gravit.io --><svg xmlns="http://www.w3.org/2000/svg" xmlns:xlink="http://www.w3.org/1999/xlink" style="isolation:isolate" viewBox="0 0 300 440" width="300pt" height="440pt"><defs><clipPath id="_clipPath_jBnmqIkLXItAr5cyq9sh98Vz1WU3baCf"><rect width="300" height="440"/></clipPath></defs><g clip-path="url(#_clipPath_jBnmqIkLXItAr5cyq9sh98Vz1WU3baCf)"><path d=" M 81 200 Q 84.5 211 79 381 Q 128.22 386 155 386 Q 181.78 386 231 381 Q 228.667 210.667 231 200 Q 233.333 189.333 240 226 Q 254.12 227.838 261 226 Q 267.88 224.162 277 219 Q 249 121.875 235 120 Q 226.75 116 195 105 Q 173.667 129 154 129 Q 134.799 129 115 105 Q 82.45 114.876 75 118 Q 59.655 124.435 33 219 Q 41.125 225 50 226 Q 58.875 227 73 226 Q 78.938 199.875 81 200 Z " fill="none" vector-effect="non-scaling-stroke" stroke-width="3" stroke="rgb(63,63,63)" stroke-linejoin="miter" stroke-linecap="square" stroke-miterlimit="3"/><path d=" M 110 108 C 114.75 113.344 125.578 125.156 131 128 C 138.375 131.906 147.797 135.266 153 135 C 158.625 135.313 172.547 131.484 180 127 C 182.602 125.508 193.641 116.156 201 108" fill="none" vector-effect="non-scaling-stroke" stroke-width="3" stroke="rgb(63,63,63)" stroke-linejoin="miter" stroke-linecap="square" stroke-miterlimit="3"/><clipPath id="_clipPath_3kTggDg2MExtUmWNw1QJ61cM8eWY4B9h"><rect x="102.538" y="173.146" width="47.962" height="11.854" transform="matrix(1,0,0,1,0,0)" fill="rgb(255,255,255)"/></clipPath><g clip-path="url(#_clipPath_3kTggDg2MExtUmWNw1QJ61cM8eWY4B9h)"><g><g><path d=" M 114.178 181.028 L 114.412 181.694 C 113.95 181.869 113.467 181.914 112.962 181.829 C 112.457 181.743 112.008 181.528 111.616 181.184 C 111.051 180.688 110.743 180.054 110.694 179.282 C 110.643 178.51 110.867 177.841 111.363 177.276 C 111.871 176.698 112.508 176.387 113.274 176.343 C 114.041 176.299 114.707 176.526 115.272 177.022 C 115.632 177.338 115.891 177.726 116.051 178.185 C 116.211 178.644 116.257 179.088 116.188 179.516 L 111.418 179.525 C 111.507 179.968 111.728 180.344 112.082 180.654 C 112.377 180.914 112.71 181.076 113.081 181.139 C 113.451 181.203 113.817 181.166 114.178 181.028 Z  M 111.392 178.837 L 115.488 178.817 C 115.419 178.312 115.192 177.891 114.807 177.552 C 114.37 177.169 113.871 176.995 113.31 177.031 C 112.749 177.068 112.277 177.304 111.893 177.741 C 111.617 178.056 111.449 178.421 111.392 178.837 Z " fill="rgb(63,63,63)"/><path d=" M 130.427 181.028 L 130.661 181.694 C 130.199 181.869 129.716 181.914 129.211 181.829 C 128.706 181.743 128.257 181.528 127.866 181.184 C 127.3 180.688 126.993 180.054 126.943 179.282 C 126.893 178.51 127.116 177.841 127.612 177.276 C 128.12 176.698 128.757 176.387 129.523 176.343 C 130.29 176.299 130.956 176.526 131.521 177.022 C 131.881 177.338 132.14 177.726 132.3 178.185 C 132.46 178.644 132.506 179.088 132.437 179.516 L 127.667 179.525 C 127.756 179.968 127.978 180.344 128.331 180.654 C 128.626 180.914 128.959 181.076 129.33 181.139 C 129.701 181.203 130.066 181.166 130.427 181.028 Z  M 127.641 178.837 L 131.737 178.817 C 131.668 178.312 131.441 177.891 131.056 177.552 C 130.619 177.169 130.12 176.995 129.559 177.031 C 128.998 177.068 128.526 177.304 128.142 177.741 C 127.866 178.056 127.699 178.421 127.641 178.837 Z " fill="rgb(63,63,63)"/><path d=" M 120.572 180.538 C 120.743 180.88 121.025 181.051 121.419 181.051 C 121.684 181.051 121.906 180.961 122.085 180.781 C 122.265 180.602 122.355 180.38 122.355 180.115 C 122.355 179.901 122.293 179.711 122.169 179.544 C 122.045 179.377 121.889 179.268 121.701 179.217 L 121.085 179.038 C 120.777 178.944 120.529 178.775 120.341 178.531 C 120.153 178.287 120.059 178.012 120.059 177.704 C 120.059 177.319 120.194 176.992 120.463 176.723 C 120.733 176.454 121.06 176.319 121.444 176.319 C 121.718 176.319 121.972 176.396 122.207 176.55 C 122.442 176.704 122.611 176.909 122.714 177.166 L 122.073 177.435 C 121.97 177.161 121.76 177.025 121.444 177.025 C 121.247 177.025 121.085 177.093 120.957 177.23 C 120.829 177.367 120.765 177.525 120.765 177.704 C 120.765 178.046 120.931 178.264 121.265 178.358 L 121.88 178.538 C 122.231 178.632 122.515 178.824 122.733 179.115 C 122.951 179.405 123.06 179.739 123.06 180.115 C 123.06 180.422 122.987 180.7 122.842 180.948 C 122.696 181.196 122.5 181.393 122.252 181.538 C 122.004 181.683 121.726 181.756 121.419 181.756 C 121.111 181.756 120.829 181.677 120.572 181.519 C 120.316 181.361 120.111 181.145 119.957 180.871 L 120.572 180.538 Z " fill="rgb(63,63,63)"/><path d=" M 136.857 184.09 L 137.408 183.679 C 137.682 184.09 138.079 184.295 138.601 184.295 C 139.028 184.295 139.372 184.154 139.633 183.872 C 139.894 183.589 140.024 183.256 140.024 182.871 L 140.024 181.269 C 139.631 181.619 139.169 181.794 138.639 181.794 C 138.049 181.794 137.553 181.594 137.152 181.192 C 136.75 180.79 136.549 180.294 136.549 179.704 L 136.549 176.409 L 137.254 176.409 L 137.254 179.704 C 137.254 180.089 137.393 180.416 137.671 180.685 C 137.949 180.954 138.271 181.089 138.639 181.089 C 139.041 181.089 139.372 180.95 139.633 180.672 C 139.894 180.395 140.024 180.072 140.024 179.704 L 140.024 176.409 L 140.729 176.409 L 140.729 182.871 C 140.729 183.461 140.522 183.963 140.107 184.378 C 139.693 184.793 139.19 185 138.601 185 C 137.865 185 137.284 184.696 136.857 184.09 Z " fill="rgb(63,63,63)"/><path d=" M 149.731 180.948 C 149.175 181.521 148.508 181.807 147.73 181.807 C 146.978 181.807 146.328 181.534 145.781 180.986 C 145.234 180.439 144.961 179.79 144.961 179.037 C 144.961 178.268 145.234 177.614 145.781 177.075 C 146.328 176.537 146.978 176.268 147.73 176.268 C 148.508 176.268 149.175 176.554 149.731 177.127 L 150.5 176.409 L 150.5 181.653 L 149.731 180.948 Z  M 147.73 176.973 C 147.149 176.973 146.66 177.172 146.262 177.569 C 145.865 177.967 145.666 178.456 145.666 179.037 C 145.666 179.619 145.865 180.108 146.262 180.506 C 146.66 180.903 147.149 181.102 147.73 181.102 C 148.303 181.102 148.79 180.901 149.192 180.499 C 149.594 180.097 149.795 179.61 149.795 179.037 C 149.795 178.465 149.594 177.977 149.192 177.576 C 148.79 177.174 148.303 176.973 147.73 176.973 Z " fill="rgb(63,63,63)"/><path d=" M 113.453 176.264 C 112.138 176.264 111.038 177.191 110.755 178.436 C 110.708 178.639 110.684 178.85 110.684 179.067 C 110.684 180.616 111.924 181.871 113.453 181.871 C 114.067 181.871 114.635 181.668 115.094 181.325 L 114.464 180.893 C 114.158 181.059 113.811 181.17 113.435 181.17 C 112.267 181.17 111.32 180.258 111.32 179.134 C 111.32 179.03 111.328 178.928 111.344 178.828 C 111.497 177.848 112.375 177.098 113.435 177.098 C 114.532 177.098 115.435 177.902 115.54 178.932 L 116.219 179.2 C 116.221 179.156 116.222 179.112 116.222 179.067 C 116.222 177.519 114.982 176.264 113.453 176.264 Z " fill="rgb(63,63,63)"/><path d=" M 129.702 176.264 C 128.387 176.264 127.287 177.191 127.003 178.436 C 126.957 178.639 126.933 178.85 126.933 179.067 C 126.933 180.616 128.172 181.871 129.702 181.871 C 130.316 181.871 130.884 181.668 131.343 181.325 L 130.692 180.897 C 130.387 181.063 130.06 181.17 129.684 181.17 C 128.516 181.17 127.569 180.258 127.569 179.134 C 127.569 179.03 127.577 178.928 127.593 178.828 C 127.746 177.848 128.624 177.098 129.684 177.098 C 130.781 177.098 131.684 177.902 131.789 178.932 L 132.468 179.2 C 132.47 179.156 132.471 179.112 132.471 179.067 C 132.471 177.519 131.231 176.264 129.702 176.264 Z " fill="rgb(63,63,63)"/><path d=" M 106.116 177.084 C 105.916 176.884 105.692 176.733 105.445 176.633 C 105.417 176.621 105.388 176.61 105.359 176.6 C 105.171 176.534 104.97 176.495 104.757 176.484 C 104.714 176.482 104.672 176.481 104.629 176.481 C 104.148 176.481 103.723 176.625 103.355 176.914 C 103.317 176.943 103.28 176.974 103.244 177.007 L 103.244 173.146 L 102.538 173.146 L 102.538 181.869 L 103.244 181.869 L 103.244 178.572 C 103.244 178.466 103.254 178.365 103.275 178.269 C 103.279 178.249 103.283 178.23 103.288 178.21 C 103.347 177.978 103.467 177.771 103.647 177.591 C 103.917 177.321 104.244 177.187 104.629 177.187 C 104.823 177.187 105.003 177.22 105.168 177.287 C 105.33 177.352 105.477 177.449 105.61 177.578 C 105.697 177.661 105.769 177.752 105.828 177.85 C 105.952 178.058 106.014 178.299 106.014 178.572 L 106.014 181.869 L 106.719 181.869 L 106.719 178.572 C 106.719 177.982 106.518 177.486 106.116 177.084 Z " fill="rgb(63,63,63)"/><path d=" M 104.629 176.481 C 104.672 176.481 104.714 176.482 104.757 176.484 L 104.757 176.972 L 103.355 176.972 L 103.355 176.914 C 103.723 176.625 104.148 176.481 104.629 176.481 Z " fill="rgb(63,63,63)"/></g></g></g></g></svg>