<?xml version="1.0" encoding="UTF-8" standalone="no"?><!-- Generator: Gravit.io --><svg xmlns="http://www.w3.org/2000/svg" xmlns:xlink="http://www.w3.org/1999/xlink" style="isolation:isolate" viewBox="0 0 2000 1000" width="2000pt" height="1000pt"><defs><clipPath id="_clipPath_i0kmCMC0q1CzWI0zmCY3HfFEFRpgO4zH"><rect x="0" y="0" width="2000" height="1000"/></clipPath></defs><g clip-path="url(#_clipPath_i0kmCMC0q1CzWI0zmCY3HfFEFRpgO4zH)"><clipPath id="_clipPath_tnTdbf5mc4B4gRUSdqHQ7irPcMCG0qrA"><rect x="0" y="0" width="2000" height="1000" transform="matrix(1,0,0,1,0,0)" fill="rgb(255,255,255)"/></clipPath><g clip-path="url(#_clipPath_tnTdbf5mc4B4gRUSdqHQ7irPcMCG0qrA)"><g><rect x="0" y="0" width="2000" height="1000" transform="matrix(1,0,0,1,0,0)" fill="none"/><g clip-path="url(#_clipPath_BRd5ddtTJBwNhDCxjB18k7lzYW8gaJSJ)"><text transform="matrix(1,0,0,1,584,563)" style="font-family:'Montserrat';font-weight:700;font-size:40px;font-style:normal;font-variant-ligatures:none;fill:#0FA7D1;stroke:none;">MARCIN BUKO</text></g><defs><clipPath id="_clipPath_BRd5ddtTJBwNhDCxjB18k7lzYW8gaJSJ"><rect x="0" y="0" width="310" height="48.76" transform="matrix(1,0,0,1,584,524.28)"/></clipPath></defs><g clip-path="url(#_clipPath_kU9EYE0uiFVooslXwHyW5V0ZSq1enMjS)"><text transform="matrix(1,0,0,1,1045.7,563)" style="font-family:'Montserrat';font-weight:700;font-size:40px;font-style:normal;font-variant-ligatures:none;fill:#C5C5C8;stroke:none;">UX/UI DESIGNER</text></g><defs><clipPath id="_clipPath_kU9EYE0uiFVooslXwHyW5V0ZSq1enMjS"><rect x="0" y="0" width="352" height="48.76" transform="matrix(1,0,0,1,1045.7,524.28)"/></clipPath></defs><clipPath id="_clipPath_p3KRNqribhaIGSoECerVCp9H3wkVaUTf"><rect x="836" y="388" width="124" height="272" transform="matrix(1,0,0,1,0,0)" fill="rgb(255,255,255)"/></clipPath><g clip-path="url(#_clipPath_p3KRNqribhaIGSoECerVCp9H3wkVaUTf)"><g><g><circle vector-effect="non-scaling-stroke" cx="836" cy="540" r="100" fill="none"/><circle vector-effect="non-scaling-stroke" cx="836" cy="540" r="97.5" fill="none" stroke-width="5" stroke="rgb(197,197,200)" stroke-linejoin="miter" stroke-linecap="butt" stroke-miterlimit="4"/></g></g></g><clipPath id="_clipPath_YySPApgb4vTJonkoolSRkDoZxgkVQ0Kr"><rect x="941" y="340" width="277" height="287" transform="matrix(1,0,0,1,0,0)" fill="rgb(255,255,255)"/></clipPath><g clip-path="url(#_clipPath_YySPApgb4vTJonkoolSRkDoZxgkVQ0Kr)"><g><g><circle vector-effect="non-scaling-stroke" cx="1181" cy="599" r="250" fill="none"/><circle vector-effect="non-scaling-stroke" cx="1181" cy="599" r="247.5" fill="none" stroke-width="5" stroke="rgb(15,167,209)" stroke-linejoin="miter" stroke-linecap="butt" stroke-miterlimit="4"/></g></g></g></g></g></g></svg>