<?xml version="1.0" encoding="UTF-8" standalone="no"?><!-- Generator: Gravit.io --><svg xmlns="http://www.w3.org/2000/svg" xmlns:xlink="http://www.w3.org/1999/xlink" style="isolation:isolate" viewBox="0 0 521.368 230" width="521.368pt" height="230pt"><defs><clipPath id="_clipPath_71GGmWNdjnBHdM3pn9iNfpYfejQV3mgZ"><rect width="521.368" height="230"/></clipPath></defs><g clip-path="url(#_clipPath_71GGmWNdjnBHdM3pn9iNfpYfejQV3mgZ)"><clipPath id="_clipPath_bC6pcYMWKsExkaOgO3SrfDUJOTDGek3s"><rect x="0" y="0" width="521.368" height="128.858" transform="matrix(1,0,0,1,0,0)" fill="rgb(255,255,255)"/></clipPath><g clip-path="url(#_clipPath_bC6pcYMWKsExkaOgO3SrfDUJOTDGek3s)"><g><g><path d=" M 126.527 85.676 L 129.07 92.919 C 124.057 94.824 118.805 95.313 113.313 94.384 C 107.821 93.456 102.944 91.12 98.686 87.381 C 92.541 81.984 89.196 75.09 88.654 66.697 C 88.109 58.305 90.536 51.036 95.933 44.891 C 101.452 38.607 108.377 35.228 116.709 34.754 C 125.04 34.279 132.278 36.741 138.423 42.138 C 142.332 45.572 145.156 49.786 146.896 54.775 C 148.635 59.766 149.128 64.59 148.377 69.247 L 96.53 69.346 C 97.499 74.157 99.904 78.247 103.745 81.62 C 106.956 84.44 110.576 86.199 114.605 86.892 C 118.634 87.587 122.608 87.181 126.527 85.676 Z  M 96.243 61.859 L 140.774 61.641 C 140.024 56.158 137.554 51.578 133.365 47.898 C 128.616 43.727 123.195 41.841 117.097 42.236 C 110.999 42.631 105.865 45.203 101.695 49.95 C 98.688 53.372 96.871 57.342 96.243 61.859 Z " fill="rgb(101,0,14)"/><path d=" M 303.162 85.676 L 305.705 92.919 C 300.692 94.824 295.44 95.313 289.948 94.384 C 284.456 93.456 279.579 91.12 275.321 87.381 C 269.176 81.984 265.831 75.09 265.289 66.697 C 264.744 58.305 267.171 51.036 272.568 44.891 C 278.087 38.607 285.012 35.228 293.344 34.754 C 301.675 34.279 308.913 36.741 315.058 42.138 C 318.967 45.572 321.791 49.786 323.531 54.775 C 325.27 59.766 325.763 64.59 325.012 69.247 L 273.165 69.346 C 274.134 74.157 276.539 78.247 280.38 81.62 C 283.591 84.44 287.211 86.199 291.24 86.892 C 295.269 87.587 299.243 87.181 303.162 85.676 Z  M 272.878 61.859 L 317.409 61.641 C 316.659 56.158 314.189 51.578 310 47.898 C 305.251 43.727 299.83 41.841 293.732 42.236 C 287.634 42.631 282.5 45.203 278.33 49.95 C 275.323 53.372 273.506 57.342 272.878 61.859 Z " fill="rgb(101,0,14)"/><path d=" M 196.041 80.351 C 197.899 84.069 200.965 85.927 205.241 85.927 C 208.12 85.927 210.538 84.951 212.489 83 C 214.441 81.049 215.416 78.633 215.416 75.752 C 215.416 73.43 214.741 71.361 213.395 69.549 C 212.047 67.737 210.35 66.552 208.307 65.995 L 201.616 64.044 C 198.271 63.022 195.574 61.187 193.531 58.538 C 191.486 55.89 190.465 52.893 190.465 49.548 C 190.465 45.366 191.929 41.812 194.856 38.885 C 197.783 35.958 201.337 34.494 205.519 34.494 C 208.492 34.494 211.256 35.33 213.812 37.003 C 216.367 38.676 218.203 40.906 219.318 43.694 L 212.349 46.621 C 211.234 43.648 208.956 42.161 205.519 42.161 C 203.38 42.161 201.616 42.906 200.222 44.391 C 198.828 45.879 198.131 47.597 198.131 49.549 C 198.131 53.266 199.943 55.636 203.567 56.657 L 210.258 58.608 C 214.067 59.632 217.158 61.723 219.527 64.881 C 221.896 68.041 223.081 71.665 223.081 75.753 C 223.081 79.098 222.29 82.119 220.712 84.813 C 219.131 87.509 216.994 89.646 214.3 91.225 C 211.604 92.804 208.585 93.594 205.24 93.594 C 201.895 93.594 198.828 92.734 196.04 91.015 C 193.252 89.296 191.022 86.951 189.349 83.976 L 196.041 80.351 Z " fill="rgb(101,0,14)"/><path d=" M 373.061 118.961 L 379.054 114.5 C 382.027 118.961 386.348 121.191 392.017 121.191 C 396.662 121.191 400.402 119.658 403.237 116.591 C 406.071 113.525 407.489 109.9 407.489 105.719 L 407.489 88.296 C 403.213 92.107 398.196 94.011 392.435 94.011 C 386.023 94.011 380.633 91.829 376.266 87.46 C 371.897 83.093 369.714 77.703 369.714 71.291 L 369.714 35.468 L 377.381 35.468 L 377.381 71.291 C 377.381 75.473 378.891 79.027 381.911 81.954 C 384.929 84.881 388.438 86.345 392.435 86.345 C 396.802 86.345 400.402 84.835 403.237 81.815 C 406.071 78.796 407.489 75.288 407.489 71.291 L 407.489 35.468 L 415.155 35.468 L 415.155 105.72 C 415.155 112.132 412.901 117.59 408.395 122.098 C 403.886 126.604 398.428 128.858 392.017 128.858 C 384.024 128.857 377.706 125.558 373.061 118.961 Z " fill="rgb(101,0,14)"/><path d=" M 513.005 84.811 C 506.963 91.038 499.715 94.15 491.26 94.15 C 483.082 94.15 476.019 91.177 470.073 85.229 C 464.125 79.283 461.152 72.22 461.152 64.042 C 461.152 55.679 464.125 48.57 470.073 42.715 C 476.019 36.861 483.082 33.934 491.26 33.934 C 499.715 33.934 506.963 37.049 513.005 43.273 L 521.368 35.467 L 521.368 92.477 L 513.005 84.811 Z  M 491.261 41.601 C 484.941 41.601 479.622 43.761 475.301 48.082 C 470.98 52.403 468.82 57.724 468.82 64.042 C 468.82 70.362 470.98 75.681 475.301 80.002 C 479.622 84.323 484.941 86.483 491.261 86.483 C 497.486 86.483 502.782 84.301 507.151 79.932 C 511.518 75.565 513.702 70.268 513.702 64.042 C 513.702 57.817 511.518 52.52 507.151 48.152 C 502.782 43.785 497.485 41.601 491.261 41.601 Z " fill="rgb(101,0,14)"/><path d=" M 118.648 33.893 C 104.36 33.893 92.394 43.974 89.317 57.499 C 88.814 59.706 88.549 62.006 88.549 64.367 C 88.549 81.197 102.025 94.841 118.648 94.841 C 125.326 94.841 131.497 92.638 136.494 88.909 L 129.639 84.214 C 126.315 86.015 122.541 87.223 118.458 87.223 C 105.759 87.223 95.461 77.314 95.461 65.091 C 95.461 63.961 95.549 62.849 95.721 61.763 C 97.385 51.117 106.932 42.96 118.457 42.96 C 130.383 42.96 140.191 51.7 141.335 62.893 L 148.715 65.806 C 148.737 65.329 148.75 64.848 148.75 64.367 C 148.751 47.537 135.271 33.893 118.648 33.893 Z " fill="rgb(101,0,14)"/><path d=" M 295.281 33.893 C 280.993 33.893 269.027 43.974 265.95 57.499 C 265.447 59.706 265.182 62.006 265.182 64.367 C 265.182 81.197 278.658 94.841 295.281 94.841 C 301.959 94.841 308.13 92.638 313.127 88.909 L 306.05 84.26 C 302.726 86.061 299.175 87.223 295.092 87.223 C 282.393 87.223 272.095 77.314 272.095 65.091 C 272.095 63.961 272.183 62.849 272.355 61.763 C 274.019 51.117 283.566 42.96 295.091 42.96 C 307.018 42.96 316.825 51.7 317.969 62.893 L 325.349 65.806 C 325.371 65.329 325.384 64.848 325.384 64.367 C 325.384 47.536 311.904 33.893 295.281 33.893 Z " fill="rgb(101,0,14)"/><path d=" M 38.899 42.807 C 36.722 40.63 34.289 38.992 31.605 37.906 C 31.296 37.774 30.982 37.654 30.665 37.544 C 28.625 36.824 26.439 36.405 24.117 36.286 C 23.658 36.264 23.194 36.251 22.726 36.251 C 17.498 36.251 12.884 37.819 8.884 40.958 C 8.473 41.276 8.067 41.616 7.67 41.969 L 7.67 0 L 0 0 L 0 94.818 L 7.67 94.818 L 7.67 58.982 C 7.67 57.834 7.78 56.735 8.006 55.684 C 8.05 55.472 8.099 55.26 8.152 55.053 C 8.792 52.523 10.099 50.275 12.06 48.315 C 14.987 45.388 18.546 43.922 22.728 43.922 C 24.843 43.922 26.799 44.284 28.592 45.013 C 30.349 45.719 31.948 46.775 33.396 48.174 C 34.336 49.084 35.122 50.073 35.758 51.137 C 37.114 53.398 37.789 56.012 37.789 58.983 L 37.789 94.819 L 45.454 94.819 L 45.454 58.983 C 45.451 52.565 43.266 47.174 38.899 42.807 Z " fill="rgb(101,0,14)"/><path d=" M 22.725 36.25 C 23.193 36.25 23.657 36.263 24.116 36.285 L 24.116 41.592 L 8.882 41.592 L 8.882 40.956 C 12.883 37.818 17.497 36.25 22.725 36.25 Z " fill="rgb(101,0,14)"/></g></g></g><g clip-path="url(#_clipPath_qQopo0ndycJ31ZjNaHIUogBv4bKHcUHy)"><text transform="matrix(1,0,0,1,26.184,205.76)" style="font-family:'Montserrat';font-weight:500;font-size:70px;font-style:normal;fill:#65000e;stroke:none;">merchandise</text></g><defs><clipPath id="_clipPath_qQopo0ndycJ31ZjNaHIUogBv4bKHcUHy"><rect x="0" y="0" width="469" height="85.33" transform="matrix(1,0,0,1,26.184,138)"/></clipPath></defs></g></svg>